<svg xmlns="http://www.w3.org/2000/svg" xmlns:xlink="http://www.w3.org/1999/xlink" version="1.1" x="0px" y="0px" viewBox="0 0 100 125" enable-background="new 0 0 100 100" xml:space="preserve"><path d="M75.335,55.531l-10.002-5.502l10.002-5.502c0.381-0.209,0.652-0.574,0.743-0.998c0.092-0.425-0.005-0.868-0.266-1.216  L51.504,9.859C51.287,9.299,50.746,8.9,50.109,8.9c-0.219,0-0.426,0.049-0.614,0.134c-0.257,0.091-0.491,0.241-0.661,0.467  L24.261,42.314c-0.26,0.347-0.357,0.791-0.266,1.215s0.363,0.789,0.743,0.998l10.002,5.502l-9.777,5.377  c-0.366,0.108-0.69,0.354-0.889,0.716c-0.36,0.655-0.176,1.459,0.396,1.903l24.097,32.178c0.218,0.559,0.759,0.956,1.395,0.956  c0.013,0,0.025-0.004,0.039-0.004c0.011,0,0.022,0.004,0.033,0.004c0.473,0,0.917-0.223,1.2-0.601l24.577-32.814  c0.261-0.348,0.357-0.791,0.266-1.216C75.987,56.104,75.716,55.741,75.335,55.531z M48.463,85.059L30.881,61.58l17.582,9.674V85.059  z M51.463,71.254l17.832-9.811L51.463,85.252V71.254z M61.502,48.713c-0.002,0-0.003,0.001-0.004,0.001l-9.887,5.439l-0.003-39.151  L72.377,42.73L61.502,48.713z M48.609,14.807l0.001,39.429l-10.034-5.521c-0.002-0.001-0.005-0.001-0.007-0.003L27.697,42.73  L48.609,14.807z M49.314,58.047c0.236,0.13,0.498,0.188,0.758,0.182c0.013,0,0.025,0.004,0.039,0.004  c0.368,0,0.701-0.138,0.961-0.357l11.149-6.134l9.242,5.085L49.963,68.655L28.538,56.866l9.315-5.124L49.314,58.047z"/></svg>